<svg width="1097" height="250" viewBox="0 0 1097 250" fill="none" xmlns="http://www.w3.org/2000/svg">
<path d="M376.978 206.931L315.344 43.1042H350.201L397.483 173.515L444.522 43.1042H479.38L417.987 206.931H376.978Z" fill="#404346"/>
<path d="M572.133 209.344C522.56 209.344 486.376 174.842 486.376 125.38C486.376 75.7973 522.56 40.6914 572.133 40.6914C621.947 40.6914 658.011 75.9179 658.011 125.38C658.011 174.842 621.947 209.344 572.133 209.344ZM519.907 125.259C519.907 157.349 541.979 179.064 572.254 179.064C602.89 179.064 624.6 157.349 624.6 125.259C624.6 93.4105 602.89 71.0923 572.254 71.0923C541.859 71.0923 519.907 93.4105 519.907 125.259Z" fill="#404346"/>
<path d="M704.568 43.1042C713.561 43.1042 720.851 50.3943 720.851 59.3872V190.648C720.851 199.641 713.561 206.931 704.568 206.931V206.931C695.575 206.931 688.285 199.641 688.285 190.648V59.3872C688.285 50.3944 695.575 43.1042 704.568 43.1042V43.1042Z" fill="#404346"/>
<path d="M836.038 209.344C788.396 209.344 751.125 172.911 751.125 125.018C751.125 77.1243 787.31 40.6914 835.194 40.6914C865.348 40.6914 892.486 56.0125 908.528 81.5879L882.837 99.925C871.861 81.8292 856.061 70.8511 835.194 70.8511C805.402 70.8511 784.536 93.2899 784.536 125.018C784.536 156.866 806.247 179.185 836.038 179.185C856.181 179.185 871.982 170.016 885.611 150.955L909.614 168.327C893.813 194.868 865.71 209.344 836.038 209.344Z" fill="#404346"/>
<path d="M1010.69 209.344C961.116 209.344 924.932 174.842 924.932 125.38C924.932 75.7973 961.116 40.6914 1010.69 40.6914C1060.5 40.6914 1096.57 75.9179 1096.57 125.38C1096.57 174.842 1060.5 209.344 1010.69 209.344ZM958.463 125.259C958.463 157.349 980.535 179.064 1010.81 179.064C1041.45 179.064 1063.16 157.349 1063.16 125.259C1063.16 93.4105 1041.45 71.0923 1010.81 71.0923C980.415 71.0923 958.463 93.4105 958.463 125.259Z" fill="#404346"/>
<mask id="path-2-inside-1_902_1855" fill="white">
<path d="M165.976 0C212.354 0 249.951 37.5964 249.951 83.9746V166.024C249.951 179.626 246.716 192.471 240.976 203.835L249.421 235.357C251.396 242.732 244.649 249.48 237.275 247.504L206.907 239.365C194.797 246.138 180.837 249.999 165.976 249.999H83.9756C37.5973 249.999 0 212.402 0 166.023V83.9746C0.000188151 37.5965 37.5975 0.000139846 83.9756 0H165.976Z"/>
</mask>
<g filter="url(#filter0_iii_902_1855)">
<path d="M165.976 0C212.354 0 249.951 37.5964 249.951 83.9746V166.024C249.951 179.626 246.716 192.471 240.976 203.835L249.421 235.357C251.396 242.732 244.649 249.48 237.275 247.504L206.907 239.365C194.797 246.138 180.837 249.999 165.976 249.999H83.9756C37.5973 249.999 0 212.402 0 166.023V83.9746C0.000188151 37.5965 37.5975 0.000139846 83.9756 0H165.976Z" fill="url(#paint0_radial_902_1855)"/>
</g>
<path d="M249.951 83.9746L251.416 83.9746L251.416 83.9746L249.951 83.9746ZM249.951 166.024L251.416 166.024V166.024H249.951ZM240.976 203.835L239.668 203.175L239.416 203.674L239.561 204.214L240.976 203.835ZM249.421 235.357L250.836 234.978L250.836 234.978L249.421 235.357ZM237.275 247.504L236.896 248.919L236.896 248.919L237.275 247.504ZM206.907 239.365L207.286 237.95L206.712 237.796L206.192 238.087L206.907 239.365ZM83.9756 249.999L83.9756 251.464H83.9756V249.999ZM0 83.9746L-1.46469 83.9746V83.9746H0ZM83.9756 0L83.9756 -1.46469L83.9756 -1.46469L83.9756 0ZM165.976 0V1.46469C211.545 1.46469 248.486 38.4054 248.486 83.9746L249.951 83.9746L251.416 83.9746C251.416 36.7875 213.163 -1.46469 165.976 -1.46469V0ZM249.951 83.9746H248.486V166.024H249.951H251.416V83.9746H249.951ZM249.951 166.024L248.486 166.024C248.486 179.391 245.308 192.011 239.668 203.175L240.976 203.835L242.283 204.495C248.124 192.931 251.416 179.86 251.416 166.024L249.951 166.024ZM240.976 203.835L239.561 204.214L248.006 235.736L249.421 235.357L250.836 234.978L242.39 203.456L240.976 203.835ZM249.421 235.357L248.006 235.736C249.69 242.022 243.938 247.773 237.655 246.089L237.275 247.504L236.896 248.919C245.359 251.187 253.103 243.442 250.836 234.978L249.421 235.357ZM237.275 247.504L237.655 246.089L207.286 237.95L206.907 239.365L206.528 240.78L236.896 248.919L237.275 247.504ZM206.907 239.365L206.192 238.087C194.295 244.741 180.581 248.534 165.976 248.534V249.999V251.464C181.094 251.464 195.299 247.536 207.622 240.644L206.907 239.365ZM165.976 249.999V248.534H83.9756V249.999V251.464H165.976V249.999ZM83.9756 249.999L83.9756 248.534C38.4063 248.534 1.46469 211.593 1.46469 166.023H0H-1.46469C-1.46469 213.211 36.7884 251.464 83.9756 251.464L83.9756 249.999ZM0 166.023H1.46469V83.9746H0H-1.46469V166.023H0ZM0 83.9746L1.46469 83.9746C1.46487 38.4054 38.4064 1.46483 83.9756 1.46469L83.9756 0L83.9756 -1.46469C36.7886 -1.46455 -1.4645 36.7875 -1.46469 83.9746L0 83.9746ZM83.9756 0V1.46469H165.976V0V-1.46469H83.9756V0Z" fill="white" fill-opacity="0.51" mask="url(#path-2-inside-1_902_1855)"/>
<rect x="46.8633" y="101.537" width="18.551" height="46.8658" rx="9.27551" fill="#404346"/>
<rect x="81.5254" y="84.623" width="18.3399" height="80.6957" rx="9.16996" fill="#404346"/>
<rect x="115.977" y="64.4492" width="18.3399" height="121.043" rx="9.16996" fill="#404346"/>
<rect x="150.43" y="84.623" width="18.3399" height="80.6957" rx="9.16996" fill="#404346"/>
<rect x="184.881" y="101.537" width="18.551" height="46.8658" rx="9.27551" fill="#404346"/>
<defs>
<filter id="filter0_iii_902_1855" x="-10.6629" y="-1.80645" width="260.614" height="262.469" filterUnits="userSpaceOnUse" color-interpolation-filters="sRGB">
<feFlood flood-opacity="0" result="BackgroundImageFix"/>
<feBlend mode="normal" in="SourceGraphic" in2="BackgroundImageFix" result="shape"/>
<feColorMatrix in="SourceAlpha" type="matrix" values="0 0 0 0 0 0 0 0 0 0 0 0 0 0 0 0 0 0 127 0" result="hardAlpha"/>
<feOffset dx="-10.6629" dy="10.6629"/>
<feGaussianBlur stdDeviation="6.0931"/>
<feComposite in2="hardAlpha" operator="arithmetic" k2="-1" k3="1"/>
<feColorMatrix type="matrix" values="0 0 0 0 1 0 0 0 0 1 0 0 0 0 1 0 0 0 0.25 0"/>
<feBlend mode="normal" in2="shape" result="effect1_innerShadow_902_1855"/>
<feColorMatrix in="SourceAlpha" type="matrix" values="0 0 0 0 0 0 0 0 0 0 0 0 0 0 0 0 0 0 127 0" result="hardAlpha"/>
<feOffset dx="-1.52328" dy="1.52328"/>
<feGaussianBlur stdDeviation="1.52328"/>
<feComposite in2="hardAlpha" operator="arithmetic" k2="-1" k3="1"/>
<feColorMatrix type="matrix" values="0 0 0 0 1 0 0 0 0 1 0 0 0 0 1 0 0 0 0.6 0"/>
<feBlend mode="normal" in2="effect1_innerShadow_902_1855" result="effect2_innerShadow_902_1855"/>
<feColorMatrix in="SourceAlpha" type="matrix" values="0 0 0 0 0 0 0 0 0 0 0 0 0 0 0 0 0 0 127 0" result="hardAlpha"/>
<feOffset dy="-4.88229"/>
<feGaussianBlur stdDeviation="0.903225"/>
<feComposite in2="hardAlpha" operator="arithmetic" k2="-1" k3="1"/>
<feColorMatrix type="matrix" values="0 0 0 0 0.591979 0 0 0 0 0.475763 0 0 0 0 0 0 0 0 0.45 0"/>
<feBlend mode="normal" in2="effect2_innerShadow_902_1855" result="effect3_innerShadow_902_1855"/>
</filter>
<radialGradient id="paint0_radial_902_1855" cx="0" cy="0" r="1" gradientUnits="userSpaceOnUse" gradientTransform="translate(124.976 125) rotate(90) scale(125 124.976)">
<stop stop-color="#FFEDA5"/>
<stop offset="1" stop-color="#FFDF5C"/>
</radialGradient>
</defs>
</svg>
